<?xml version="1.0"?>
<svg xmlns="http://www.w3.org/2000/svg" id="Layer_5" enable-background="new 0 0 64 64" height="512px" viewBox="0 0 64 64" width="512px"><g><path d="m61 53v-35c0-2.757-2.243-5-5-5h-3v-12h-42v12h-3c-2.757 0-5 2.243-5 5v35h-2v3c0 3.86 3.141 7 7 7h48c3.859 0 7-3.14 7-7v-3zm-40-50h22v8h8v28h-30v-8h-8v-20h8zm-8 30h6v6h-6zm40 8v-22h2v30h-46v-30h2v22zm-2-32h-6v-6h6zm-32-6v6h-6v-6zm-14 15c0-1.654 1.346-3 3-3h3v2h-2c-1.103 0-2 .897-2 2v30c0 1.103.897 2 2 2h46c1.103 0 2-.897 2-2v-30c0-1.103-.897-2-2-2h-2v-2h3c1.654 0 3 1.346 3 3v35h-54zm33.816 37c-.414 1.161-1.514 2-2.816 2h-8c-1.302 0-2.402-.839-2.816-2zm22.184 1c0 2.757-2.243 5-5 5h-48c-2.757 0-5-2.243-5-5v-1h20.101c.465 2.279 2.484 4 4.899 4h8c2.414 0 4.434-1.721 4.899-4h20.101z" data-original="#000000" class="active-path" data-old_color="#000000" fill="#923DE3"/><path d="m15 5h2v2h-2z" data-original="#000000" class="active-path" data-old_color="#000000" fill="#923DE3"/><path d="m15 35h2v2h-2z" data-original="#000000" class="active-path" data-old_color="#000000" fill="#923DE3"/><path d="m47 5h2v2h-2z" data-original="#000000" class="active-path" data-old_color="#000000" fill="#923DE3"/><path d="m27 11h2v-4c0-1.103-.897-2-2-2h-4v2h4z" data-original="#000000" class="active-path" data-old_color="#000000" fill="#923DE3"/><path d="m23 9h2v2h-2z" data-original="#000000" class="active-path" data-old_color="#000000" fill="#923DE3"/><path d="m39 11h2v-4c0-1.103-.897-2-2-2h-8v2h8z" data-original="#000000" class="active-path" data-old_color="#000000" fill="#923DE3"/><path d="m33 13h4v-2h-4v-2h-2v2c0 1.103.897 2 2 2z" data-original="#000000" class="active-path" data-old_color="#000000" fill="#923DE3"/><path d="m43 23v4h2v-4h2c1.103 0 2-.897 2-2v-8h-2v8h-2c-1.103 0-2 .897-2 2z" data-original="#000000" class="active-path" data-old_color="#000000" fill="#923DE3"/><path d="m47 25h2v2h-2z" data-original="#000000" class="active-path" data-old_color="#000000" fill="#923DE3"/><path d="m39 15v2h2v-2h4v-2h-4c-1.103 0-2 .897-2 2z" data-original="#000000" class="active-path" data-old_color="#000000" fill="#923DE3"/><path d="m43 17h2v2h-2z" data-original="#000000" class="active-path" data-old_color="#000000" fill="#923DE3"/><path d="m15 13h9v2h-9z" data-original="#000000" class="active-path" data-old_color="#000000" fill="#923DE3"/><path d="m17 23h7v-2h-7v-4h-2v4c0 1.103.897 2 2 2z" data-original="#000000" class="active-path" data-old_color="#000000" fill="#923DE3"/><path d="m28 17v-4h-2v4h-7v2h7c1.103 0 2-.897 2-2z" data-original="#000000" class="active-path" data-old_color="#000000" fill="#923DE3"/><path d="m17 27v2h2v-2c0-1.103-.897-2-2-2h-2v2z" data-original="#000000" class="active-path" data-old_color="#000000" fill="#923DE3"/><path d="m25 29c0-1.103-.897-2-2-2h-2v2h2v6c0 1.103.897 2 2 2h4v-2h-4z" data-original="#000000" class="active-path" data-old_color="#000000" fill="#923DE3"/><path d="m31 27h-2c-1.103 0-2 .897-2 2v4h2v-4h2z" data-original="#000000" class="active-path" data-old_color="#000000" fill="#923DE3"/><path d="m26 25h4c1.103 0 2-.897 2-2v-4h-2v4h-4z" data-original="#000000" class="active-path" data-old_color="#000000" fill="#923DE3"/><path d="m35 19h2v-2c0-1.103-.897-2-2-2h-5v2h5z" data-original="#000000" class="active-path" data-old_color="#000000" fill="#923DE3"/><path d="m41 21v-2h-2v2h-5v2h5c1.103 0 2-.897 2-2z" data-original="#000000" class="active-path" data-old_color="#000000" fill="#923DE3"/><path d="m33 27v2h2v-2h6v-2h-6c-1.103 0-2 .897-2 2z" data-original="#000000" class="active-path" data-old_color="#000000" fill="#923DE3"/><path d="m39 31v-2h-2v2h-4c-1.103 0-2 .897-2 2v4h2v-4h4c1.103 0 2-.897 2-2z" data-original="#000000" class="active-path" data-old_color="#000000" fill="#923DE3"/><path d="m43 35h-8v2h8c1.103 0 2-.897 2-2v-2h-2z" data-original="#000000" class="active-path" data-old_color="#000000" fill="#923DE3"/><path d="m47 29h-6v2h6v6h2v-6c0-1.103-.897-2-2-2z" data-original="#000000" class="active-path" data-old_color="#000000" fill="#923DE3"/><path d="m11 43h20v2h-20z" data-original="#000000" class="active-path" data-old_color="#000000" fill="#923DE3"/><path d="m33 43h2v2h-2z" data-original="#000000" class="active-path" data-old_color="#000000" fill="#923DE3"/><path d="m37 43h15v2h-15z" data-original="#000000" class="active-path" data-old_color="#000000" fill="#923DE3"/></g> </svg>
